HIERARCHY
ROOT pelvis
{
  OFFSET 0 100 0
  CHANNELS 6 Xposition Yposition Zposition Zrotation Xrotation Yrotation
  JOINT pelvis_right_femur
  {
    OFFSET -10.78128 -3.44521 -0.5502486
    CHANNELS 3 Zrotation Xrotation Yrotation
    JOINT right_femur_tibia
    {
      OFFSET -0.8047443 -44.0398 -0.1307829
      CHANNELS 3 Zrotation Xrotation Yrotation
      JOINT right_tibia_foot
      {
        OFFSET 3.006224 -47.83518 -5
        CHANNELS 3 Zrotation Xrotation Yrotation
        End Site
        {
          OFFSET 0 -5 15
        }
      }
    }
  }
  JOINT pelvis_left_femur
  {
    OFFSET 10.78128 -3.44521 -0.5502486
    CHANNELS 3 Zrotation Xrotation Yrotation
    JOINT left_femur_tibia
    {
      OFFSET 0.8047443 -44.0398 -0.1307829
      CHANNELS 3 Zrotation Xrotation Yrotation
      JOINT left_tibia_foot
      {
        OFFSET -4.370144 -48.10324 -4.275266
        CHANNELS 3 Zrotation Xrotation Yrotation
        End Site
        {
          OFFSET 0 -5 15
        }
      }
    }
  }
  JOINT pelvis_spine1
  {
    OFFSET 0 6.468898 -3.129235
    CHANNELS 3 Zrotation Xrotation Yrotation
    JOINT spine1
    {
      OFFSET 0 23.15396 4.99043
      CHANNELS 3 Zrotation Xrotation Yrotation
      JOINT spine2
      {
        OFFSET 0 20.79997 -5.064912
        CHANNELS 3 Zrotation Xrotation Yrotation
        JOINT neck
        {
          OFFSET 0 14.38658 9.616178
          CHANNELS 3 Zrotation Xrotation Yrotation
          End Site
          {
            OFFSET 0 20 0
          }
        }
      }
      JOINT right_manubrium
      {
        OFFSET -5.722621 16.35077 3.967754
        CHANNELS 3 Zrotation Xrotation Yrotation
        JOINT right_clavicle
        {
          OFFSET -13.16364 1.694482 -4.693211
          CHANNELS 3 Zrotation Xrotation Yrotation
          JOINT right_humerus
          {
            OFFSET -28.5034 -0.3100689 -2.792744
            CHANNELS 3 Zrotation Xrotation Yrotation
            JOINT right_radius
            {
              OFFSET -25.15693 0.02248979 -1.271978
              CHANNELS 3 Zrotation Xrotation Yrotation
              End Site
              {
                OFFSET -15 0 0
              }
            }
          }
        }
      }
      JOINT left_manubrium
      {
        OFFSET 5.722621 16.35077 3.967754
        CHANNELS 3 Zrotation Xrotation Yrotation
        JOINT left_clavicle
        {
          OFFSET 13.16364 1.694482 -4.693211
          CHANNELS 3 Zrotation Xrotation Yrotation
          JOINT left_humerus
          {
            OFFSET 29.39168 -1.063119 -2.237045
            CHANNELS 3 Zrotation Xrotation Yrotation
            JOINT left_radius
            {
              OFFSET 24.59957 -0.9528479 0.9047498
              CHANNELS 3 Zrotation Xrotation Yrotation
              End Site
              {
                OFFSET 15 -0 -0
              }
            }
          }
        }
      }
    }
  }
}
MOTION
Frames: 9
Frame Time: 0.0416666666667
0 103.5113 0 1.038684 -1.190059 -0.002811699 3.328421 -17.27663 8.212493 -0 36.00896 -0 -5.299954 -16.19298 -3.734315 -6.789008 12.19051 -23.23834 -0 5.393465 -0 5.778604 -18.59228 25.03012 -3.462873 -2.930494 5.907188 2.798188 9.367447 -7.008043 1.020995 22.57991 5.837458 1.929474 -24.75699 8.961532 5.112961 -20.4757 11.96799 82.68629 37.02317 -13.29623 -0 0 17.83308 -9.945757 8.323598 6.076018 5.165393 -19.29783 1.062202 -93.93501 21.28337 24.19503 0 0 -8.440431 13.8256 15.88201 -4.508181
0.1830272 103.3596 1.587387 0.1893178 -0.601325 -0.1052914 4.196743 -20.14681 8.805978 -0 36.68885 -0 -5.976137 -14.31486 -4.266977 -6.055941 12.06953 -22.96782 -0 5.920878 -0 3.048235 -20.40571 24.04876 -3.278431 -2.705901 5.789479 2.781537 9.574021 -7.136252 0.963941 22.33385 6.061644 2.11193 -24.902 8.972103 5.078138 -20.32536 11.99232 83.40327 36.71303 -14.16656 -0 0 17.20994 -10.15533 8.53542 6.172135 5.239252 -19.55639 0.7057491 -93.49599 21.2644 23.59292 0 0 -9.72967 13.43331 15.22676 -3.79033
0.3846692 103.0761 3.463934 -0.2475995 0.7248016 -0.179857 5.093734 -24.55373 8.594443 -0 32.59133 -0 -6.021691 -12.72141 -3.932719 -5.920819 11.96298 -21.81729 -0 6.042976 -0 4.162793 -21.23987 23.56702 -2.933657 -2.400383 5.458191 2.896392 9.764467 -7.423082 0.9370286 21.87986 6.462461 2.416062 -25.36149 9.183469 5.147295 -19.93026 11.98418 84.67166 36.45663 -15.97343 -0 0 15.98179 -9.632449 8.755832 5.900403 5.506882 -20.01247 0.2268718 -92.86962 21.39423 22.43173 0 0 -12.20032 13.2631 14.40551 -3.053818
0.6012724 102.5766 5.735387 -0.5052938 1.77881 -0.1815133 5.517711 -28.29976 7.764602 -0 27.75996 -0 -6.12911 -10.82267 -3.450136 -5.868009 12.10016 -20.43346 -0 6.121325 -0 4.983802 -22.02398 22.62889 -2.662568 -2.148181 5.152155 3.029038 9.905216 -7.691813 0.9095296 21.4604 6.802971 2.647957 -25.77097 9.372507 5.111626 -19.63736 11.98937 85.73526 36.19711 -17.41454 -0 0 14.96769 -9.323305 8.928686 5.766676 5.727449 -20.40004 -0.1605352 -92.15685 21.28507 21.29941 0 0 -14.39498 13.23023 13.57835 -2.660109
0.8308811 101.8633 8.514666 -0.6384278 2.88455 -0.06349279 5.826409 -31.86908 6.856648 -0 22.27189 -0 -6.053091 -8.941587 -2.93735 -5.914692 12.51641 -19.03496 -0 6.456109 -0 5.935789 -22.69499 21.59963 -2.429414 -1.95665 4.857401 3.171552 9.971403 -7.935741 0.9024312 21.06981 7.098135 2.851441 -26.13292 9.555879 5.069616 -19.34932 11.97598 86.61225 36.02452 -18.65631 -0 0 14.06352 -8.996326 9.069147 5.644671 5.958624 -20.74603 -0.4692817 -91.46696 21.15621 20.21109 0 0 -16.44926 13.27943 12.86481 -2.414195
1.056774 100.9565 11.9303 -0.6962949 3.723251 0.2253568 5.932558 -34.55288 5.706633 -0 16.98042 -0 -6.03827 -6.636343 -2.390413 -5.981923 13.27253 -17.58676 -0 7.460809 -0 6.342835 -23.09974 20.26867 -2.236881 -1.801419 4.588629 3.306333 10.00397 -8.157685 0.8979923 20.70681 7.356265 3.025432 -26.43409 9.711704 4.992462 -19.09496 11.95842 87.34813 35.87243 -19.6973 -0 0 13.2739 -8.79151 9.199976 5.596361 6.172087 -21.05855 -0.7305104 -90.75795 20.95915 19.1556 0 0 -18.36132 13.34264 12.17722 -2.256037
1.258474 99.97331 16.07354 -0.8577805 4.246614 0.7316436 6.179232 -36.08591 4.741761 -0 13.10163 -0 -6.198531 -4.02575 -1.934817 -5.901278 14.27825 -16.25797 -0 9.580265 -0 5.638356 -23.02179 18.55993 -2.078826 -1.682216 4.357166 3.417567 10.01399 -8.347538 0.8972463 20.38797 7.569255 3.176331 -26.65328 9.824686 4.911998 -18.85941 11.933 87.93773 35.74198 -20.55532 -0 0 12.59617 -8.697629 9.336659 5.602229 6.36594 -21.33584 -0.9530995 -90.09574 20.76862 18.19455 0 0 -20.05551 13.36177 11.56563 -2.089696
1.419135 99.10021 20.96964 -1.265909 4.354382 1.448493 6.800569 -36.0439 4.198889 -0 11.55722 -0 -6.657845 -1.542925 -1.613314 -5.501634 15.25907 -15.11124 -0 13.26664 -0 3.390795 -22.04516 16.32458 -1.952284 -1.588575 4.173638 3.491255 10.02843 -8.503633 0.8931245 20.12494 7.733135 3.304584 -26.77481 9.876717 4.83665 -18.646 11.90516 88.40207 35.59725 -21.2456 -0 0 12.02861 -8.763753 9.498423 5.671471 6.524875 -21.57972 -1.155458 -89.50626 20.60875 17.36335 0 0 -21.4625 13.28003 11.0285 -1.843928
1.540156 98.58038 26.54151 -1.997451 4.127335 2.269988 7.889616 -34.30929 4.227165 -0 12.55783 -0 -7.404009 -0.0861022 -1.468302 -4.666869 15.70605 -14.1511 -0 18.90191 -0 -0.2718246 -19.71329 13.57759 -1.854676 -1.514239 4.048341 3.516111 10.06718 -8.620538 0.8821166 19.93338 7.840754 3.409412 -26.78633 9.854674 4.782426 -18.45685 11.87897 88.74738 35.41733 -21.77257 -0 0 11.57744 -9.005654 9.695506 5.799567 6.635517 -21.7849 -1.34783 -89.03507 20.51683 16.71641 0 0 -22.48967 13.05655 10.58894 -1.462799
